# This file uses centimeters as units for non-parametric coordinates.

mtllib craft2.mtl
v -1.795104 0.624211 3.877587
v 1.811889 0.600952 3.877587
v -0.064506 0.552780 -1.174807
v 0.070302 0.524328 -1.186098
v -1.795104 0.624211 1.497262
v 0.002484 -0.074517 -4.139827
v 1.811889 0.600952 1.530531
v 0.015204 -0.430693 3.839576
v 0.658458 1.175184 3.877587
v 0.533586 0.948547 -2.288045
v 0.485112 1.203937 -0.827815
v -0.667792 1.208001 3.877587
v -0.525683 1.209055 -0.791685
v -0.573178 0.997773 -2.334787
vt 0.774860 0.871150
vt 0.582391 1.000000
vt 0.296894 0.643332
vt 0.769030 0.841129
vt 0.292745 0.629148
vt 0.586898 0.996879
vt -0.000000 0.979344
vt -0.000000 0.629148
vt 1.000000 0.217214
vt -0.000000 0.999357
vt 0.004741 -0.000000
vt 0.631586 0.582419
vt 0.630178 0.599770
vt -0.000000 0.643332
vn 0.554264 -0.826769 0.096142
vn 0.554264 -0.826769 0.096142
vn 0.554264 -0.826769 0.096142
vn -0.581417 -0.804497 0.121403
vn -0.581417 -0.804497 0.121403
vn -0.581417 -0.804497 0.121403
vn 0.395476 0.917978 -0.030241
vn 0.395476 0.917978 -0.030241
vn 0.395476 0.917978 -0.030241
vn 0.395476 0.917978 -0.030241
vn 0.909427 0.415755 0.009523
vn 0.909427 0.415755 0.009523
vn 0.909427 0.415755 0.009523
vn 0.909427 0.415755 0.009523
vn -0.916309 0.400276 0.012579
vn -0.916309 0.400276 0.012579
vn -0.916308 0.400276 0.012579
vn -0.916308 0.400276 0.012579
vn 0.801104 -0.588267 0.110337
vn 0.801104 -0.588267 0.110337
vn 0.801104 -0.588267 0.110337
vn 0.801104 -0.588267 0.110337
vn -0.784694 -0.610030 0.110082
vn -0.784694 -0.610030 0.110082
vn -0.784694 -0.610030 0.110082
vn -0.784694 -0.610030 0.110082
vn -0.414455 0.909674 -0.026820
vn -0.414455 0.909674 -0.026820
vn -0.414455 0.909674 -0.026820
vn -0.414455 0.909674 -0.026820
s off
usemtl lambert6SG
f 14/1/1 13/2/2 5/3/3
f 10/4/4 7/5/5 11/6/6
f 9/7/7 2/8/8 7/5/9 10/4/10
f 6/9/11 14/1/12 12/10/13 8/11/14
f 10/4/15 6/9/16 8/11/17 9/7/18
f 11/6/19 4/12/20 6/9/21 10/4/22
f 14/1/23 6/9/24 3/13/25 13/2/26
f 14/1/27 5/3/28 1/14/29 12/10/30
