# This file uses centimeters as units for non-parametric coordinates.

mtllib craft3.mtl
v -3.987779 0.114849 4.834011
v 3.962276 0.147606 4.838346
v 0.005037 -0.737140 -1.992205
v 0.007729 -0.738599 -1.992217
v -0.006573 -0.622435 4.837388
v -0.005466 -0.622431 4.837389
v 0.004039 -0.833280 -5.318614
v 0.001589 -0.609827 0.001430
v -0.000566 -0.609215 0.003104
v 3.966064 0.145126 3.279547
v 1.569580 0.128936 -1.959684
v -3.973186 0.112399 3.266228
v -1.581677 0.098911 -1.962828
v -0.149341 0.130665 4.836104
v -0.036467 0.125672 -1.959447
v -0.039303 0.112739 -5.389478
v -0.039315 0.112741 -5.388528
v -0.148583 0.523739 0.459899
v 0.185328 0.417170 0.398143
v 0.305236 0.132538 4.836352
v 0.122941 0.083817 -1.959133
v 0.037277 0.115059 -5.389505
v 0.037300 0.115063 -5.386899
vt 0.000219 0.710340
vt 0.000094 0.155373
vt 0.000094 0.155377
vt 0.993069 0.000000
vt 0.999997 0.697130
vt 0.434129 0.921468
vt 1.000000 0.698840
vt 0.472916 0.164664
vt 0.999905 0.697132
vt 0.664636 0.706661
vt 0.664966 0.686941
vt 0.428091 1.000000
vt 0.153710 0.696880
vt 0.152407 0.720997
vt 0.664605 0.675818
vt 0.667840 0.069771
vt 0.999745 0.698843
vt 0.667838 0.070846
vt 0.664659 0.709066
vt 0.000195 0.711721
vt -0.000000 0.722825
vt 0.000424 0.698686
vt 0.472753 0.165116
vn 0.993952 0.109714 0.004646
vn 0.993952 0.109714 0.004646
vn 0.993952 0.109714 0.004646
vn 0.993952 0.109714 0.004646
vn 0.993952 0.109714 0.004646
vn -0.994131 0.107891 0.007926
vn -0.994131 0.107891 0.007926
vn -0.994131 0.107891 0.007926
vn -0.994131 0.107891 0.007926
vn 0.017308 -0.999843 0.003756
vn 0.017308 -0.999843 0.003756
vn 0.017308 -0.999843 0.003756
vn -0.158845 0.984663 -0.072154
vn -0.158845 0.984663 -0.072154
vn -0.158845 0.984663 -0.072154
vn 0.113057 0.992083 -0.054678
vn 0.113057 0.992083 -0.054678
vn 0.113057 0.992083 -0.054678
vn 0.996406 -0.083792 -0.012392
vn 0.996406 -0.083792 -0.012392
vn 0.996406 -0.083792 -0.012392
vn 0.996406 -0.083792 -0.012392
vn -0.998902 -0.046834 0.001325
vn -0.998902 -0.046834 0.001325
vn -0.998902 -0.046834 0.001325
vn -0.998902 -0.046834 0.001325
vn 0.031168 -0.999465 -0.009889
vn 0.031168 -0.999465 -0.009889
vn 0.031168 -0.999465 -0.009889
vn -0.004119 0.999990 -0.001601
vn -0.004119 0.999990 -0.001601
vn -0.004119 0.999990 -0.001601
vn -0.004119 0.999990 -0.001601
vn -0.004050 0.999990 -0.001770
vn -0.004050 0.999990 -0.001770
vn -0.004050 0.999990 -0.001770
vn -0.004050 0.999990 -0.001770
vn 0.995862 0.090737 0.004994
vn 0.995862 0.090737 0.004994
vn 0.995862 0.090737 0.004994
vn 0.995862 0.090737 0.004994
vn -0.980081 0.198334 0.010206
vn -0.980081 0.198334 0.010206
vn -0.980081 0.198334 0.010206
vn -0.980081 0.198334 0.010206
s off
usemtl lambert6SG
f 14/1/1 5/2/2 6/3/3 7/4/4 16/5/5
f 19/6/6 22/7/7 7/4/8 8/8/9
f 17/9/10 15/10/11 13/11/12
f 18/12/13 16/5/14 12/13/15
f 22/7/16 19/6/17 10/14/18
f 21/15/19 4/16/20 7/4/21 23/17/22
f 17/9/23 7/4/24 3/18/25 15/10/26
f 23/17/27 11/19/28 21/15/29
f 22/7/30 20/20/31 2/21/32 10/14/33
f 16/5/34 12/13/35 1/22/36 14/1/37
f 16/5/38 18/12/39 9/23/40 7/4/41
f 22/7/42 7/4/43 6/3/44 20/20/45
