# This file uses centimeters as units for non-parametric coordinates.

mtllib LTorch.mtl
v 0.001588 0.473352 0.128860
v 0.001588 0.470777 -0.128860
v 0.001588 -0.473352 0.128860
v -0.918212 -0.084157 0.111194
v -0.927894 -0.050212 0.050421
v -0.945107 -0.205647 0.104649
v -1.160263 -0.125111 0.090946
v -1.063443 -0.164405 0.111287
v -1.063443 -0.164489 0.085514
v -1.063443 -0.054608 0.085514
v -0.772980 0.095007 0.094993
v -0.579338 0.189337 0.069097
v -0.579338 0.110744 0.116346
v -0.385695 0.283279 0.013134
v -0.482518 0.156869 -0.015798
v 0.001588 0.472064 0.000000
v -0.772980 -0.251549 0.094993
v -0.676159 -0.290843 0.115335
v -0.579338 -0.212870 0.069097
v -0.385695 -0.032289 0.013134
v 0.001588 -0.001287 0.000000
v -0.772980 -0.251465 0.120766
v -0.579338 -0.212550 0.122789
v -0.385695 -0.031346 0.124813
v 0.001588 0.000000 0.128860
vt 0.425528 0.816574
vt 0.205668 0.922965
vt 0.506486 0.922965
vt 0.368730 0.993891
vt 0.082142 0.032800
vt 0.500000 0.032800
vt 0.498864 0.032800
vt 0.915585 0.032800
vt 0.916722 0.032800
vt 0.917858 0.032800
vt 0.788398 0.519739
vt 0.911882 0.682052
vt 0.912916 0.426512
vt 0.870987 0.519739
vt 0.205437 0.922965
vt 0.092675 0.836276
vt 0.113133 0.682052
vt 0.076418 0.600896
vt 0.823294 0.438582
vt 0.471497 0.357426
vt 0.113383 0.682052
vt 0.487133 0.357426
vt 0.215224 0.519739
vt 0.518531 0.823666
vt 0.214657 0.519739
vn -0.058812 0.084847 0.994657
vn -0.640571 0.691772 0.333346
vn -0.124780 -0.005309 0.992170
vn -0.728554 0.680221 0.080669
vn 1.000000 0.000000 0.000000
vn 1.000000 0.000000 0.000000
vn 1.000000 0.000000 0.000000
vn 1.000000 0.000000 0.000000
vn 1.000000 0.000000 0.000000
vn 1.000000 0.000000 0.000000
vn -0.070794 0.104812 0.991969
vn -0.412033 0.683902 0.602085
vn -0.438401 0.898735 -0.008979
vn -0.504087 0.799589 -0.326427
vn -0.147228 0.256240 0.955335
vn -0.521558 0.846840 0.104111
vn -0.124557 -0.270930 -0.954507
vn -0.086088 -0.350852 -0.932466
vn -0.288749 -0.957397 0.003875
vn -0.190182 -0.980879 -0.041322
vn -0.202922 0.028193 -0.978789
vn -0.033033 -0.258094 -0.965555
vn -0.134224 -0.084213 -0.987366
vn -0.030888 -0.234508 -0.971623
vn -0.039647 -0.037445 0.998512
vn -0.016825 0.001003 0.999858
vn -0.013713 0.012060 0.999833
vn -0.113903 -0.993275 0.020746
vn -0.022690 -0.006884 0.999719
vn -0.112454 -0.050937 -0.992351
vn -0.055014 -0.288665 -0.955848
s 1
usemtl lambert8SG
f 4/1/1 10/3/2 8/2/3
f 10/3/2 7/4/4 8/2/3
s 2
f 3/5/5 21/7/6 25/6/7
f 2/8/8 16/9/9 21/7/6
f 1/10/10 25/6/7 16/9/9
f 16/9/9 25/6/7 21/7/6
s 1
f 13/11/11 11/12/12 4/1/1
f 11/12/12 10/3/2 4/1/1
f 16/9/13 14/13/14 1/10/15
f 14/13/14 12/14/16 1/10/15
f 9/15/17 17/17/18 6/16/19
f 17/17/18 18/18/20 6/16/19
f 2/8/21 21/7/22 15/19/23
f 21/7/22 20/20/24 15/19/23
f 18/18/20 22/21/25 6/16/19
f 22/21/25 8/2/3 6/16/19
f 25/6/26 24/22/27 3/5/28
f 24/22/27 23/23/29 3/5/28
f 6/16/19 8/2/3 9/15/17
f 8/2/3 7/4/4 9/15/17
f 5/24/30 9/15/17 10/3/2
f 9/15/17 7/4/4 10/3/2
f 10/3/2 11/12/12 5/24/30
f 11/12/12 12/14/16 5/24/30
f 1/10/15 12/14/16 13/11/11
f 12/14/16 11/12/12 13/11/11
f 5/24/30 12/14/16 15/19/23
f 12/14/16 14/13/14 15/19/23
f 15/19/23 14/13/14 2/8/21
f 14/13/14 16/9/13 2/8/21
f 3/5/28 18/18/20 19/25/31
f 18/18/20 17/17/18 19/25/31
f 19/25/31 17/17/18 5/24/30
f 17/17/18 9/15/17 5/24/30
f 5/24/30 15/19/23 19/25/31
f 15/19/23 20/20/24 19/25/31
f 19/25/31 20/20/24 3/5/28
f 20/20/24 21/7/22 3/5/28
f 8/2/3 22/21/25 4/1/1
f 22/21/25 23/23/29 4/1/1
f 3/5/28 23/23/29 18/18/20
f 23/23/29 22/21/25 18/18/20
f 4/1/1 23/23/29 13/11/11
f 23/23/29 24/22/27 13/11/11
f 1/10/15 13/11/11 25/6/26
f 13/11/11 24/22/27 25/6/26
