# This file uses centimeters as units for non-parametric coordinates.

mtllib RTorch.mtl
v -0.001822 0.473352 0.128860
v -0.001822 0.470777 -0.128860
v -0.001822 -0.473352 0.128860
v 0.917979 -0.084157 0.111194
v 0.927661 -0.050212 0.050421
v 0.944874 -0.205647 0.104649
v 1.160032 -0.125111 0.090946
v 1.063211 -0.164405 0.111287
v 1.063211 -0.164489 0.085514
v 1.063211 -0.054608 0.085514
v 0.772747 0.095007 0.094993
v 0.579105 0.189337 0.069097
v 0.579105 0.110744 0.116346
v 0.385463 0.283279 0.013134
v 0.482284 0.156869 -0.015798
v -0.001822 0.472064 0.000000
v 0.772747 -0.251549 0.094993
v 0.675926 -0.290843 0.115335
v 0.579105 -0.212870 0.069097
v 0.385463 -0.032289 0.013134
v -0.001822 -0.001287 0.000000
v 0.772747 -0.251465 0.120766
v 0.579105 -0.212550 0.122789
v 0.385463 -0.031346 0.124813
v -0.001822 0.000000 0.128860
vt 0.425528 0.816574
vt 0.205668 0.922965
vt 0.506486 0.922965
vt 0.368730 0.993891
vt 0.082142 0.032800
vt 0.500000 0.032800
vt 0.498864 0.032800
vt 0.915585 0.032800
vt 0.916722 0.032800
vt 0.917858 0.032800
vt 0.788398 0.519739
vt 0.911882 0.682052
vt 0.912916 0.426512
vt 0.870987 0.519739
vt 0.205437 0.922965
vt 0.092675 0.836276
vt 0.113133 0.682052
vt 0.076418 0.600896
vt 0.823294 0.438582
vt 0.471497 0.357426
vt 0.113383 0.682052
vt 0.487133 0.357426
vt 0.215224 0.519739
vt 0.518531 0.823666
vt 0.214657 0.519739
vn 0.058811 0.084847 0.994657
vn 0.124780 -0.005309 0.992170
vn 0.640570 0.691774 0.333346
vn 0.728554 0.680222 0.080668
vn -1.000000 0.000000 0.000000
vn -1.000000 0.000000 0.000000
vn -1.000000 0.000000 0.000000
vn -1.000000 0.000000 0.000000
vn -1.000000 0.000000 0.000000
vn -1.000000 0.000000 0.000000
vn 0.070794 0.104812 0.991969
vn 0.412033 0.683902 0.602085
vn 0.438400 0.898735 -0.008979
vn 0.147228 0.256240 0.955335
vn 0.504088 0.799587 -0.326428
vn 0.521558 0.846841 0.104109
vn 0.124556 -0.270929 -0.954507
vn 0.288748 -0.957397 0.003874
vn 0.086088 -0.350851 -0.932466
vn 0.190182 -0.980879 -0.041322
vn 0.202922 0.028194 -0.978789
vn 0.134224 -0.084213 -0.987366
vn 0.033033 -0.258094 -0.965555
vn 0.030888 -0.234508 -0.971623
vn 0.039646 -0.037445 0.998512
vn 0.016825 0.001003 0.999858
vn 0.113903 -0.993275 0.020746
vn 0.013713 0.012060 0.999833
vn 0.022690 -0.006884 0.999719
vn 0.112454 -0.050937 -0.992351
vn 0.055014 -0.288665 -0.955848
s 1
usemtl lambert8SG
f 4/1/1 8/2/2 10/3/3
f 10/3/3 8/2/2 7/4/4
s 2
f 3/5/5 25/6/6 21/7/7
f 2/8/8 21/7/7 16/9/9
f 1/10/10 16/9/9 25/6/6
f 16/9/9 21/7/7 25/6/6
s 1
f 13/11/11 4/1/1 11/12/12
f 11/12/12 4/1/1 10/3/3
f 16/9/13 1/10/14 14/13/15
f 14/13/15 1/10/14 12/14/16
f 9/15/17 6/16/18 17/17/19
f 17/17/19 6/16/18 18/18/20
f 2/8/21 15/19/22 21/7/23
f 21/7/23 15/19/22 20/20/24
f 18/18/20 6/16/18 22/21/25
f 22/21/25 6/16/18 8/2/2
f 25/6/26 3/5/27 24/22/28
f 24/22/28 3/5/27 23/23/29
f 6/16/18 9/15/17 8/2/2
f 8/2/2 9/15/17 7/4/4
f 5/24/30 10/3/3 9/15/17
f 9/15/17 10/3/3 7/4/4
f 10/3/3 5/24/30 11/12/12
f 11/12/12 5/24/30 12/14/16
f 1/10/14 13/11/11 12/14/16
f 12/14/16 13/11/11 11/12/12
f 5/24/30 15/19/22 12/14/16
f 12/14/16 15/19/22 14/13/15
f 15/19/22 2/8/21 14/13/15
f 14/13/15 2/8/21 16/9/13
f 3/5/27 19/25/31 18/18/20
f 18/18/20 19/25/31 17/17/19
f 19/25/31 5/24/30 17/17/19
f 17/17/19 5/24/30 9/15/17
f 5/24/30 19/25/31 15/19/22
f 15/19/22 19/25/31 20/20/24
f 19/25/31 3/5/27 20/20/24
f 20/20/24 3/5/27 21/7/23
f 8/2/2 4/1/1 22/21/25
f 22/21/25 4/1/1 23/23/29
f 3/5/27 18/18/20 23/23/29
f 23/23/29 18/18/20 22/21/25
f 4/1/1 13/11/11 23/23/29
f 23/23/29 13/11/11 24/22/28
f 1/10/14 25/6/26 13/11/11
f 13/11/11 25/6/26 24/22/28
